<?xml version="1.0" standalone="no"?>
<!DOCTYPE svg PUBLIC "-//W3C//DTD SVG 20010904//EN"
 "http://www.w3.org/TR/2001/REC-SVG-20010904/DTD/svg10.dtd">
<svg version="1.0" xmlns="http://www.w3.org/2000/svg"
 width="425.000000pt" height="295.000000pt" viewBox="0 0 425.000000 295.000000"
 preserveAspectRatio="xMidYMid meet">
<metadata>
Created by potrace 1.16, written by Peter Selinger 2001-2019
</metadata>
<g transform="translate(0.000000,295.000000) scale(0.100000,-0.100000)"
fill="#000000" stroke="none">
<path d="M1756 2858 c-8 -13 -22 -45 -31 -73 -36 -106 -62 -149 -116 -185 -64
-43 -104 -88 -119 -135 -24 -74 4 -177 71 -258 53 -64 90 -42 53 33 -20 40
-13 143 14 189 22 39 50 51 121 51 57 0 59 1 72 33 10 23 13 73 12 181 -1 82
-5 157 -8 167 -9 27 -51 24 -69 -3z"/>
<path d="M2183 2734 c-3 -8 -2 -32 2 -52 9 -43 9 -86 0 -162 -7 -53 -6 -56 31
-99 58 -67 112 -103 136 -90 15 8 19 20 18 62 -1 29 1 73 5 98 10 62 -12 106
-90 185 -66 67 -92 82 -102 58z"/>
<path d="M2427 2718 c-3 -13 -1 -54 4 -93 31 -222 31 -222 -8 -292 -13 -23
-23 -50 -23 -60 0 -10 41 -59 91 -108 104 -103 110 -112 120 -180 5 -27 13
-78 18 -113 9 -62 32 -112 50 -112 45 0 44 503 0 618 -5 13 -9 30 -9 38 0 25
-71 166 -111 221 -39 52 -96 103 -116 103 -6 0 -13 -10 -16 -22z"/>
<path d="M1937 2613 c-4 -3 -7 -29 -7 -56 0 -48 -32 -127 -52 -127 -21 0 -5
-65 28 -115 20 -30 40 -76 45 -102 18 -94 45 -81 84 41 37 118 37 196 0 261
-55 98 -77 120 -98 98z"/>
<path d="M1164 2565 c-17 -41 -20 -284 -4 -367 28 -146 34 -167 78 -278 56
-138 162 -277 293 -383 44 -35 99 -50 99 -27 0 6 -24 46 -54 89 -41 60 -56 91
-61 131 -5 37 -4 55 5 60 10 6 10 8 0 12 -10 3 -10 22 -2 88 6 47 16 105 22
130 28 114 28 112 -53 159 -106 61 -178 159 -231 315 -38 111 -66 133 -92 71z"/>
<path d="M1680 2429 c0 -11 12 -43 27 -72 44 -86 39 -119 -48 -293 l-74 -149
0 -85 c0 -72 4 -94 28 -144 51 -111 218 -316 256 -316 31 0 30 11 -4 58 -76
108 -101 214 -80 344 15 95 19 106 55 191 49 115 61 157 62 214 1 58 -1 65
-42 118 -45 58 -131 137 -162 148 -13 5 -18 1 -18 -14z"/>
<path d="M3193 2421 c-297 -89 -455 -264 -441 -490 6 -100 27 -77 93 98 47
124 131 186 180 131 15 -16 17 -31 12 -92 -8 -96 -28 -159 -71 -224 -51 -76
-111 -115 -244 -160 -111 -38 -139 -57 -111 -75 41 -26 268 9 355 54 37 20 91
72 119 117 40 64 82 208 100 340 22 166 42 206 132 270 12 8 24 25 28 38 6 20
3 22 -27 21 -18 0 -75 -13 -125 -28z"/>
<path d="M2118 2404 c0 -5 -2 -40 -3 -79 -3 -91 -18 -122 -117 -246 -128 -159
-162 -248 -156 -407 3 -87 7 -105 37 -167 39 -80 68 -123 125 -182 63 -67 73
-54 31 43 -14 33 -29 68 -34 79 -23 56 -31 98 -31 168 0 92 30 170 88 230 49
51 82 67 137 67 123 0 185 -99 185 -294 0 -164 -30 -230 -162 -357 -58 -56
-98 -103 -96 -110 3 -9 19 -14 41 -13 46 1 109 48 214 158 100 103 127 153
184 331 24 77 26 257 4 333 -25 83 -114 185 -302 344 -103 87 -142 114 -145
102z"/>
<path d="M893 1782 c-133 -45 -278 -156 -383 -296 -57 -75 -46 -88 47 -52 133
51 251 34 468 -69 153 -72 272 -79 430 -27 84 28 210 96 213 115 4 19 -17 23
-48 7 -11 -5 -29 -14 -39 -20 -30 -15 -184 -31 -243 -25 -109 10 -145 18 -208
47 -106 47 -162 128 -126 183 24 37 76 48 193 43 83 -4 106 -2 110 9 11 28
-28 56 -140 102 -52 21 -184 13 -274 -17z"/>
<path d="M2825 1591 c-71 -20 -94 -32 -119 -60 -34 -38 -7 -47 65 -22 78 26
79 26 79 -1 l0 -21 19 22 c19 21 23 22 73 12 71 -16 98 -42 98 -98 0 -25 -5
-53 -10 -64 -14 -24 -72 -61 -127 -78 -79 -26 -277 2 -319 44 -7 7 -24 31 -37
55 -13 23 -28 42 -33 41 -15 -1 -17 -82 -3 -110 23 -46 88 -99 146 -121 55
-20 68 -21 260 -14 199 7 345 -4 359 -27 3 -5 12 -9 21 -9 8 0 47 -23 85 -51
44 -32 74 -47 80 -41 16 16 -11 100 -70 221 -45 95 -67 127 -126 186 -80 82
-144 116 -259 140 -89 18 -106 18 -182 -4z"/>
<path d="M1545 1347 c-112 -47 -135 -60 -206 -117 -130 -104 -173 -183 -228
-413 -33 -140 9 -375 63 -354 11 5 14 15 10 36 -9 41 11 114 43 162 43 65 152
120 298 149 155 31 220 64 316 160 103 103 169 207 169 270 0 41 -19 38 -71
-11 -60 -56 -143 -112 -245 -165 -70 -36 -98 -45 -157 -50 -85 -7 -123 5 -138
43 -26 68 19 125 184 231 86 56 105 84 62 90 -11 1 -56 -13 -100 -31z"/>
<path d="M2670 1134 c-46 -9 -112 -48 -141 -83 -53 -64 -29 -95 35 -46 39 30
94 33 126 7 19 -15 22 -25 16 -54 -14 -75 -90 -104 -221 -84 -119 19 -172 46
-255 132 -40 41 -76 74 -81 74 -23 0 -6 -42 57 -142 41 -65 142 -156 211 -190
106 -52 212 -48 371 12 71 27 188 28 240 1 20 -11 66 -49 102 -85 78 -80 95
-84 86 -22 -14 94 -110 248 -217 352 -108 103 -144 123 -232 128 -39 3 -83 2
-97 0z"/>
</g>
</svg>
