<?xml version="1.0" standalone="no"?>
<!DOCTYPE svg PUBLIC "-//W3C//DTD SVG 20010904//EN"
 "http://www.w3.org/TR/2001/REC-SVG-20010904/DTD/svg10.dtd">
<svg version="1.0" xmlns="http://www.w3.org/2000/svg"
 width="1077.000000pt" height="888.000000pt" viewBox="0 0 1077.000000 888.000000"
 preserveAspectRatio="xMidYMid meet">
<metadata>
Created by potrace 1.16, written by Peter Selinger 2001-2019
</metadata>
<g transform="translate(0.000000,888.000000) scale(0.100000,-0.100000)"
fill="#000000" stroke="none">
<path d="M5130 8873 c-758 -31 -1401 -257 -1771 -623 -197 -196 -320 -405
-371 -633 -16 -76 -19 -114 -15 -217 9 -216 62 -348 204 -506 132 -147 255
-222 451 -276 66 -18 106 -22 272 -22 170 -1 209 2 300 22 126 29 247 67 435
137 252 94 428 136 656 155 210 17 466 -11 664 -74 44 -14 81 -24 83 -22 2 2
-13 10 -34 16 l-37 13 29 13 c16 7 25 13 19 13 -15 1 -7 244 8 253 9 6 9 8 0
8 -8 0 -9 9 -3 30 5 17 5 28 0 25 -4 -3 -10 -2 -13 2 -2 5 -2 2 -1 -4 2 -7 -1
-13 -7 -13 -7 0 -9 -19 -5 -53 l5 -52 -39 -13 c-52 -16 -71 -15 -159 5 -55 13
-83 26 -108 49 -30 29 -33 37 -33 90 0 32 12 137 26 233 15 97 27 213 28 259
1 72 -2 85 -18 98 -24 17 -37 18 -60 1 -14 -11 -22 -53 -42 -252 -24 -243 -38
-335 -56 -368 -15 -29 -70 -57 -113 -57 -57 0 -126 37 -148 80 -16 31 -18 54
-14 205 6 192 -5 367 -29 458 -48 186 -133 357 -177 357 -22 0 -57 -30 -57
-49 0 -9 19 -67 41 -127 69 -182 90 -303 96 -562 l6 -222 -32 -65 c-66 -134
-233 -225 -361 -196 -72 16 -81 32 -96 178 -33 315 -64 647 -64 682 0 56 -27
86 -68 76 -47 -10 -57 -36 -37 -93 22 -64 62 -342 76 -527 10 -133 9 -159 -5
-208 -52 -179 -263 -339 -431 -325 -59 5 -86 22 -113 73 -21 40 -29 267 -12
350 30 143 23 195 -28 195 -47 0 -52 -22 -52 -232 0 -336 -35 -448 -141 -448
-43 0 -216 58 -300 101 -101 51 -93 75 85 245 82 78 126 127 126 141 0 23 -46
73 -67 73 -8 0 -31 -17 -50 -37 -107 -115 -163 -166 -201 -185 -38 -18 -49
-19 -83 -9 -49 15 -100 65 -118 117 -15 43 -27 332 -17 388 9 50 31 69 69 60
17 -3 94 -31 173 -60 191 -72 244 -70 244 11 0 46 -25 61 -123 74 -86 12 -209
63 -245 101 -12 13 -22 35 -22 49 0 61 100 206 159 231 67 28 140 -29 264
-205 38 -55 79 -110 90 -122 27 -31 62 -29 84 3 16 24 16 28 -1 57 -15 29
-123 169 -243 317 -50 61 -55 96 -20 153 31 51 72 77 125 77 70 0 98 -36 196
-252 152 -337 316 -578 394 -578 9 0 11 10 6 38 -13 71 -38 118 -160 302 -68
102 -137 214 -153 250 -72 154 -91 330 -43 397 28 40 96 73 165 80 49 5 56 3
71 -18 9 -13 16 -41 16 -63 0 -21 9 -69 19 -105 11 -36 27 -102 37 -145 21
-99 47 -131 93 -115 16 6 31 18 33 27 2 9 -13 68 -34 131 -53 160 -64 222 -48
274 16 55 34 75 95 103 94 45 176 23 218 -59 10 -21 61 -201 112 -400 106
-419 124 -476 147 -491 24 -15 72 4 76 30 2 17 -74 328 -192 779 -9 32 -16 85
-16 116 0 96 50 127 188 116 108 -8 176 -40 258 -121 84 -84 125 -159 161
-295 23 -87 26 -120 30 -356 3 -152 9 -265 15 -272 14 -18 63 -16 78 2 7 9 18
62 23 118 22 222 -30 579 -115 794 -20 49 -20 53 -4 78 48 73 223 79 255 9 7
-15 11 -87 11 -182 0 -160 8 -219 36 -284 17 -39 34 -51 59 -42 26 10 28 51
10 229 -17 164 -17 177 -1 218 30 79 87 110 202 110 l64 0 0 43 c0 60 0 59
-45 57 -26 -1 -33 1 -21 6 39 15 -548 65 -694 59 -25 -1 -79 -3 -120 -5z"/>
<path d="M10765 4440 c0 -2445 1 -3445 2 -2223 2 1223 2 3223 0 4445 -1 1223
-2 223 -2 -2222z"/>
<path d="M8000 7011 c-337 -72 -580 -324 -657 -681 -13 -63 -18 -127 -18 -245
1 -239 14 -296 205 -840 135 -386 157 -756 66 -1115 -14 -52 -22 -99 -19 -104
3 -5 -2 -15 -12 -23 -11 -7 -15 -13 -10 -13 5 0 17 8 28 18 19 16 19 16 13 -8
-4 -14 -4 -20 1 -13 5 7 42 13 96 14 48 2 82 6 75 11 -9 5 -5 8 10 8 13 0 21
-4 18 -9 -3 -4 8 -8 23 -7 31 1 32 16 2 16 -10 0 -26 9 -36 20 -10 11 -23 17
-29 13 -6 -3 -5 0 2 8 6 7 12 26 12 42 0 40 28 146 48 179 34 58 96 62 363 23
230 -34 303 -36 331 -7 18 18 20 26 12 49 -12 35 -17 37 -322 67 -260 27 -315
41 -347 90 -13 19 -16 40 -13 74 6 63 26 102 67 129 33 22 40 23 276 23 173 0
268 4 331 15 200 35 424 140 424 199 0 8 -9 24 -19 37 l-19 24 -49 -18 c-239
-88 -354 -113 -591 -127 -202 -12 -289 -4 -362 36 -93 51 -166 156 -179 259
-15 123 11 169 100 179 103 12 595 57 703 66 88 6 112 12 123 26 16 21 16 34
3 68 -11 29 -46 34 -97 15 -38 -14 -326 -56 -485 -70 -165 -14 -233 -8 -305
27 -127 62 -252 236 -261 363 -6 83 15 126 75 154 67 30 290 32 406 2 70 -17
82 -17 104 -5 15 8 31 23 37 33 9 15 6 23 -16 42 -27 23 -32 24 -145 18 -130
-6 -327 9 -413 32 -68 18 -110 59 -110 110 0 38 63 222 104 302 32 65 55 79
94 59 16 -8 82 -71 148 -140 130 -136 151 -147 192 -103 33 35 28 61 -20 99
-53 42 -121 112 -159 162 -60 80 -30 168 76 221 l60 30 181 0 c165 0 184 -2
203 -19 12 -11 21 -27 21 -37 0 -10 -27 -90 -60 -178 -74 -197 -76 -228 -18
-250 59 -22 89 19 103 138 6 55 62 190 91 222 29 33 63 32 132 -2 74 -36 147
-102 157 -142 19 -76 -30 -130 -289 -312 -31 -22 -59 -50 -62 -63 -8 -29 20
-62 52 -62 24 0 169 105 289 209 92 80 127 97 176 82 80 -24 133 -117 105
-184 -19 -47 -44 -62 -258 -160 -204 -92 -319 -157 -445 -251 -70 -52 -123
-113 -123 -141 0 -14 84 3 140 28 30 14 106 61 168 105 211 150 327 208 476
238 141 29 220 1 263 -92 29 -63 33 -142 9 -159 -9 -7 -40 -15 -69 -19 -58 -7
-287 -61 -330 -78 -32 -13 -44 -49 -28 -85 14 -31 20 -30 196 26 138 44 203
51 260 27 41 -18 80 -75 95 -139 9 -41 8 -55 -9 -93 -28 -63 -65 -77 -466
-179 -426 -108 -468 -120 -490 -145 -21 -23 -14 -64 14 -79 14 -8 120 16 427
95 225 58 428 108 450 111 54 7 108 -11 131 -45 26 -39 23 -177 -6 -252 -56
-145 -200 -259 -383 -304 -108 -27 -219 -36 -436 -36 l-202 0 -11 -26 c-28
-76 20 -95 239 -95 233 0 456 35 622 96 102 37 109 39 135 27 63 -29 87 -185
36 -235 -20 -21 -33 -22 -219 -27 -191 -5 -199 -6 -254 -33 -61 -30 -72 -51
-42 -81 19 -20 28 -20 184 -1 159 19 210 19 258 0 65 -26 110 -111 98 -184 -7
-45 6 -70 27 -52 12 9 16 9 20 -1 4 -10 8 -10 16 2 6 8 11 10 11 4 0 -5 -6
-16 -12 -23 -9 -10 -9 -12 -1 -7 6 3 16 -2 22 -11 8 -14 10 -11 6 17 -4 27 -3
30 4 15 9 -18 10 -17 10 8 1 16 -3 26 -8 22 -5 -3 -13 0 -17 6 -7 12 15 31 28
23 4 -3 8 1 8 8 0 7 7 69 15 138 58 507 29 1007 -85 1455 -135 532 -396 941
-745 1170 -257 168 -504 227 -745 176z"/>
<path d="M3131 5303 c-1 -22 -5 -23 -93 -25 -51 -1 -103 -1 -115 0 -13 0 -23
-3 -23 -9 0 -5 -10 -9 -22 -10 -17 -1 -14 -3 10 -9 75 -18 87 -59 53 -190 -25
-92 -51 -121 -118 -127 -26 -3 -149 9 -271 26 -123 17 -239 31 -257 31 -47 0
-84 -19 -91 -47 -10 -40 19 -61 94 -68 314 -32 493 -56 524 -71 67 -32 86
-108 48 -192 -15 -33 -29 -47 -63 -62 -38 -17 -66 -19 -272 -17 -257 2 -338
-8 -480 -55 -120 -40 -244 -105 -258 -135 -13 -29 3 -68 30 -75 11 -3 52 8 93
24 202 80 383 111 650 112 183 1 186 1 242 -27 73 -36 150 -119 177 -192 14
-37 21 -79 21 -126 0 -64 -3 -73 -27 -98 -26 -26 -37 -28 -163 -40 -74 -7
-245 -23 -380 -37 -135 -13 -263 -24 -285 -24 -72 0 -100 -36 -73 -95 13 -29
35 -32 99 -10 93 30 397 67 569 69 163 1 166 1 218 -27 182 -96 314 -347 242
-464 -27 -46 -66 -62 -174 -73 -102 -11 -144 -8 -277 17 -94 18 -133 13 -149
-18 -9 -16 -8 -26 4 -43 15 -23 19 -24 243 -29 295 -7 387 -27 419 -88 22 -44
17 -82 -32 -212 -92 -247 -107 -254 -242 -119 -48 48 -106 108 -130 135 -35
38 -49 47 -77 47 -24 0 -39 -7 -49 -22 -28 -39 -20 -64 32 -103 51 -39 152
-146 170 -182 34 -64 -4 -155 -80 -192 -59 -28 -211 -45 -333 -37 -109 8 -145
22 -145 59 0 13 21 77 46 142 57 148 74 201 74 232 0 56 -84 86 -114 40 -9
-12 -20 -56 -26 -96 -13 -90 -61 -208 -100 -246 -41 -39 -88 -31 -181 30 -177
118 -150 191 147 398 44 31 87 63 94 71 17 22 4 65 -23 75 -40 15 -40 15 -379
-257 -64 -51 -134 -41 -191 28 -53 62 -41 142 26 186 17 12 110 56 204 99 210
94 318 155 442 249 86 65 146 134 130 151 -10 10 -100 -16 -161 -46 -31 -16
-105 -63 -163 -104 -229 -163 -368 -224 -530 -232 -82 -4 -93 -3 -124 19 -48
32 -70 65 -86 130 -24 89 3 128 88 128 47 0 303 65 332 84 39 26 27 96 -17 96
-12 0 -78 -18 -147 -41 -163 -53 -221 -59 -281 -27 -81 44 -121 180 -73 247
33 45 99 68 463 161 432 110 478 124 492 156 9 18 7 29 -6 49 -9 14 -24 25
-32 25 -16 0 -567 -139 -736 -186 -102 -28 -193 -31 -227 -8 -50 35 -64 121
-36 227 54 209 221 334 502 376 39 6 173 11 297 11 l226 0 16 25 c21 33 7 70
-33 87 -38 16 -375 16 -478 0 -123 -19 -292 -61 -375 -94 -63 -24 -81 -27
-103 -19 -52 20 -86 148 -56 214 22 48 41 52 234 52 187 0 231 7 288 47 30 22
35 49 11 69 -13 11 -40 10 -157 -1 -280 -29 -321 -19 -369 88 -15 34 -18 58
-15 108 l5 64 -44 0 c-24 0 -47 1 -51 3 -25 8 -66 -462 -66 -748 1 -734 179
-1357 510 -1787 144 -188 393 -376 593 -449 140 -50 217 -62 370 -56 150 5
223 23 343 83 84 43 243 184 298 266 98 143 154 320 165 513 14 235 -31 441
-189 860 -53 143 -101 330 -122 475 -29 204 -15 489 32 665 8 33 17 71 19 84
1 13 8 36 15 53 9 23 9 32 -1 41 -10 9 -11 9 -6 0 4 -7 2 -21 -4 -30 -10 -15
-11 -16 -6 -1 2 9 1 29 -4 45 -7 24 -8 25 -9 6z"/>
<path d="M6685 2670 c-161 -17 -343 -67 -602 -165 -137 -53 -328 -107 -463
-132 -73 -13 -146 -17 -315 -17 -190 1 -235 4 -330 24 -60 12 -122 23 -137 24
-14 0 -24 5 -21 10 4 5 -17 7 -47 4 -49 -5 -51 -4 -29 8 23 14 23 14 -11 8
-19 -3 -48 -1 -63 5 -18 7 -26 7 -22 1 3 -6 14 -10 23 -11 11 -1 8 -4 -8 -10
-19 -7 -16 -7 13 -3 26 3 37 2 32 -5 -4 -7 4 -11 19 -11 26 0 26 -1 26 -79 0
-55 -4 -82 -14 -90 -11 -9 -15 -9 -19 1 -2 7 -7 10 -11 7 -3 -3 3 -15 14 -27
22 -23 26 -42 10 -42 -13 0 -13 -41 1 -60 8 -12 9 -8 6 15 -4 20 2 39 15 58
32 44 61 51 148 31 89 -19 121 -34 149 -70 29 -36 27 -85 -9 -334 -34 -235
-36 -287 -14 -318 17 -25 56 -29 74 -7 7 9 22 110 36 248 34 333 42 370 91
402 36 24 142 17 180 -11 59 -43 65 -71 58 -254 -10 -272 13 -442 85 -628 45
-118 87 -176 127 -180 44 -4 64 32 44 81 -89 225 -117 353 -131 603 -15 262
-2 320 92 420 82 87 216 132 316 105 70 -19 62 27 136 -781 6 -69 15 -131 19
-137 14 -23 75 -16 92 10 13 21 14 29 1 64 -32 92 -78 444 -80 618 -1 114 1
123 28 180 37 76 141 180 221 222 139 72 259 62 301 -24 29 -61 32 -281 5
-395 -16 -69 -18 -93 -10 -117 15 -43 55 -53 82 -20 18 22 19 34 13 129 -6
112 7 334 26 410 20 83 62 130 118 130 24 0 155 -45 261 -89 90 -38 114 -59
105 -96 -8 -30 -112 -143 -190 -205 -30 -24 -63 -59 -73 -77 -17 -32 -17 -33
3 -60 14 -18 32 -29 52 -31 27 -3 36 3 66 45 40 56 171 171 204 180 38 9 91
-7 126 -38 56 -49 69 -100 73 -299 6 -261 2 -264 -228 -175 -205 80 -259 77
-259 -12 0 -29 5 -36 33 -47 17 -8 57 -17 89 -20 134 -17 268 -93 268 -153 0
-48 -84 -180 -138 -215 -33 -22 -73 -23 -111 -3 -39 20 -116 106 -188 211 -96
140 -130 161 -163 99 -18 -34 -12 -46 121 -213 172 -216 169 -212 169 -247 0
-43 -51 -112 -98 -132 -48 -20 -99 -11 -133 24 -15 15 -66 114 -113 218 -116
256 -214 421 -310 523 -33 35 -84 67 -93 58 -9 -8 16 -95 43 -155 13 -30 55
-97 93 -150 38 -53 86 -123 106 -155 115 -181 173 -401 131 -499 -27 -64 -102
-108 -189 -111 -57 -1 -77 17 -77 74 0 20 -6 59 -14 86 -8 27 -24 93 -36 146
-30 136 -65 174 -120 130 l-23 -18 41 -125 c23 -68 46 -144 52 -168 33 -127
-49 -231 -185 -234 -98 -2 -127 38 -180 244 -175 688 -179 700 -205 724 -25
22 -68 10 -76 -22 -6 -22 88 -410 177 -733 59 -213 27 -290 -119 -290 -219 0
-395 163 -463 430 -18 73 -22 123 -26 348 -4 212 -8 266 -20 277 -21 21 -40
19 -67 -8 -21 -21 -25 -37 -31 -131 -17 -247 31 -566 117 -782 19 -48 19 -52
4 -76 -39 -59 -191 -77 -239 -29 -21 20 -22 33 -27 219 -5 191 -6 199 -33 255
-19 38 -34 57 -47 57 -43 0 -47 -38 -25 -239 20 -184 15 -222 -40 -270 -33
-28 -89 -51 -127 -51 -21 0 -24 -16 -5 -23 6 -3 2 -6 -10 -6 -16 -1 -23 5 -23
17 0 12 -15 23 -45 34 -25 10 -45 15 -45 12 0 -2 11 -9 25 -14 15 -6 25 -17
25 -29 0 -10 7 -24 15 -31 21 -18 19 -41 -5 -47 -34 -9 -22 -23 23 -25 76 -3
111 -7 157 -17 164 -34 708 -38 975 -7 649 77 1163 291 1483 618 133 136 204
236 279 394 68 145 87 232 87 404 0 169 -12 227 -79 366 -48 100 -153 226
-247 297 -190 142 -461 207 -743 177z"/>
</g>
</svg>
