<?xml version="1.0" standalone="no"?>
<!DOCTYPE svg PUBLIC "-//W3C//DTD SVG 20010904//EN"
 "http://www.w3.org/TR/2001/REC-SVG-20010904/DTD/svg10.dtd">
<svg version="1.0" xmlns="http://www.w3.org/2000/svg"
 width="900.000000pt" height="900.000000pt" viewBox="0 0 900.000000 900.000000"
 preserveAspectRatio="xMidYMid meet">

<g transform="translate(0.000000,900.000000) scale(0.100000,-0.100000)"
fill="#000000" stroke="none">
<path d="M4319 8966 c-2 -3 -56 -7 -119 -11 -63 -4 -146 -11 -185 -16 -38 -5
-112 -14 -163 -19 -51 -5 -99 -13 -105 -17 -7 -4 -34 -10 -62 -14 -82 -12
-219 -41 -359 -77 -21 -6 -45 -17 -52 -24 -12 -11 11 -13 144 -10 172 5 410
-11 512 -34 36 -8 76 -14 90 -14 38 0 363 -84 385 -99 28 -21 96 -34 118 -23
26 12 95 36 152 50 22 6 65 18 95 26 133 34 285 64 370 71 36 3 99 10 140 16
76 11 393 7 479 -7 31 -4 42 -3 37 5 -4 6 -20 11 -35 11 -15 0 -32 5 -39 12
-6 6 -30 14 -54 19 -46 8 -186 42 -253 61 -22 6 -62 15 -90 18 -27 4 -109 17
-181 28 -72 12 -171 24 -220 27 -49 3 -125 10 -169 14 -82 8 -429 14 -436 7z"/>
<path d="M3205 8770 c-4 -6 5 -10 19 -10 14 0 26 5 26 10 0 6 -9 10 -19 10
-11 0 -23 -4 -26 -10z"/>
<path d="M3015 8710 c3 -5 12 -7 20 -3 21 7 19 13 -6 13 -11 0 -18 -4 -14 -10z"/>
<path d="M2920 8683 c-19 -9 -44 -19 -55 -24 -11 -4 -51 -22 -88 -38 -38 -17
-72 -31 -76 -31 -4 0 -38 -15 -77 -34 -38 -18 -94 -46 -124 -60 -30 -14 -77
-39 -105 -56 -27 -16 -70 -39 -95 -52 -25 -13 -47 -25 -50 -28 -8 -9 -141 -90
-147 -90 -3 0 -22 -13 -43 -30 -21 -16 -40 -30 -44 -30 -5 0 -96 -60 -106 -70
-3 -3 -59 -45 -125 -94 -66 -49 -122 -92 -125 -95 -3 -3 -36 -33 -75 -66 -156
-133 -335 -312 -470 -470 -33 -38 -70 -81 -83 -95 -13 -14 -32 -40 -43 -57
-11 -18 -24 -33 -29 -33 -4 0 -10 -9 -13 -21 -5 -17 -3 -18 11 -7 36 29 67 55
101 84 124 105 342 244 516 328 66 32 127 62 136 66 15 8 136 57 196 80 18 7
35 12 38 11 3 -1 21 6 41 14 20 8 46 15 58 15 21 0 76 47 76 64 0 5 12 23 28
42 15 18 56 70 92 116 81 105 328 352 440 442 85 67 269 195 303 208 9 4 17
12 17 18 0 15 -39 11 -80 -7z"/>
<path d="M5990 8691 c0 -5 10 -13 22 -17 12 -3 26 -11 32 -16 6 -5 56 -39 112
-76 234 -158 497 -413 684 -667 22 -30 40 -58 40 -63 0 -17 47 -52 71 -52 13
0 49 -9 79 -21 30 -11 66 -24 80 -29 59 -20 158 -59 176 -68 10 -6 62 -31 114
-57 52 -26 104 -52 115 -58 99 -58 133 -78 220 -136 55 -36 144 -100 197 -143
53 -43 99 -78 102 -78 11 0 6 17 -11 36 -10 11 -40 46 -68 79 -83 100 -215
246 -300 330 -73 73 -121 117 -230 215 -67 59 -277 225 -321 253 -22 14 -47
31 -55 39 -26 24 -281 188 -294 188 -3 0 -33 17 -67 38 -117 71 -453 231 -583
277 -27 10 -54 22 -59 27 -13 11 -56 10 -56 -1z"/>
<path d="M4085 8573 c-211 -26 -426 -60 -470 -75 -16 -6 -48 -14 -70 -18 -76
-16 -198 -47 -260 -68 -16 -6 -55 -18 -85 -28 -30 -9 -59 -21 -65 -25 -5 -5
-15 -9 -23 -9 -8 0 -28 -6 -45 -14 -18 -7 -54 -22 -82 -31 -68 -25 -139 -56
-280 -126 -112 -55 -148 -74 -296 -157 -31 -17 -107 -65 -168 -106 -90 -60
-108 -76 -92 -81 11 -3 30 -1 41 5 12 6 42 15 68 20 26 5 70 13 97 19 157 31
392 49 570 46 211 -5 386 -23 443 -46 21 -8 34 1 114 78 50 49 98 95 107 103
9 9 50 43 91 75 41 33 77 62 80 65 3 3 28 20 55 39 28 19 75 51 105 72 47 32
247 149 255 149 2 0 50 22 107 49 56 27 115 53 131 56 107 27 -127 33 -328 8z"/>
<path d="M4560 8583 c0 -5 21 -16 48 -27 44 -17 269 -126 302 -146 8 -5 64
-39 124 -76 184 -112 312 -211 466 -361 l95 -93 45 6 c25 4 54 8 65 11 157 32
637 33 820 2 135 -23 279 -53 308 -64 12 -5 17 -2 17 9 0 9 -6 16 -14 16 -8 0
-16 3 -18 8 -3 8 -100 72 -226 151 -67 42 -190 106 -382 201 -8 4 -67 28 -130
55 -63 26 -129 53 -147 61 -17 8 -38 14 -46 14 -9 0 -19 5 -22 10 -3 6 -15 10
-25 10 -11 0 -34 6 -52 14 -59 24 -264 82 -393 110 -210 45 -319 64 -420 71
-44 4 -107 11 -140 16 -72 11 -275 12 -275 2z"/>
<path d="M4300 8044 c-109 -8 -278 -26 -316 -34 -22 -5 -65 -12 -95 -16 -65
-7 -258 -50 -314 -70 -23 -8 -49 -14 -59 -14 -19 0 -76 -30 -76 -40 0 -3 19
-7 43 -8 23 -2 65 -9 92 -18 28 -8 64 -19 80 -23 146 -43 181 -55 189 -62 6
-5 18 -9 28 -9 9 0 34 -7 55 -16 189 -82 439 -208 473 -239 9 -8 20 -15 24
-15 5 0 22 -11 38 -25 28 -24 32 -25 52 -11 19 14 147 92 201 123 11 6 49 25
85 43 36 17 72 36 80 41 8 5 22 12 30 15 8 3 24 10 35 14 39 17 91 38 135 55
25 9 54 21 65 26 73 31 329 99 375 99 16 0 30 4 30 10 0 17 -44 37 -125 55
-44 10 -89 21 -100 26 -11 5 -47 13 -80 19 -33 5 -96 17 -140 26 -44 8 -125
20 -180 25 -55 5 -129 13 -165 18 -62 8 -363 11 -460 5z"/>
<path d="M3316 7845 c-15 -8 -36 -15 -45 -15 -10 0 -26 -7 -37 -15 -10 -8 -26
-15 -35 -15 -9 0 -29 -6 -45 -14 -16 -8 -56 -26 -89 -41 -121 -54 -311 -151
-359 -182 -26 -18 -51 -33 -54 -33 -12 0 -262 -174 -347 -241 -204 -161 -402
-357 -571 -565 -95 -118 -98 -136 -13 -91 24 13 53 26 64 29 11 4 45 16 75 28
70 27 119 43 195 65 33 9 74 21 90 27 17 5 50 13 75 18 25 4 90 17 145 28 55
11 136 23 180 27 44 3 100 9 125 12 25 3 56 7 68 7 25 1 62 38 62 62 0 24 144
324 201 419 16 28 35 60 41 73 6 12 15 22 20 22 4 0 8 5 8 10 0 20 231 322
279 364 39 35 20 48 -33 21z"/>
<path d="M5634 7849 c-3 -5 3 -17 14 -27 21 -18 78 -84 124 -142 71 -93 128
-170 128 -173 0 -3 17 -31 39 -63 37 -57 89 -147 120 -209 8 -16 17 -32 20
-35 3 -3 14 -23 25 -45 10 -22 22 -47 26 -56 4 -8 22 -51 39 -95 53 -133 50
-129 106 -132 102 -5 412 -47 459 -61 17 -5 60 -17 96 -26 96 -25 230 -65 268
-81 18 -8 37 -14 42 -14 9 0 129 -52 162 -70 10 -6 22 -10 28 -10 12 0 14 27
2 32 -4 2 -23 23 -41 48 -19 25 -39 50 -45 55 -6 6 -31 35 -56 65 -68 85 -287
305 -365 368 -38 31 -74 62 -80 68 -5 6 -39 33 -75 59 -36 27 -67 52 -70 55
-6 7 -238 162 -260 173 -8 4 -37 21 -65 37 -67 40 -313 165 -378 191 -29 12
-68 28 -87 36 -113 46 -169 63 -176 52z"/>
<path d="M2015 7761 c-3 -5 -40 -38 -83 -72 -258 -208 -539 -499 -707 -734
-16 -22 -34 -44 -39 -50 -17 -16 -181 -264 -212 -320 -15 -27 -35 -63 -45 -80
-48 -82 -166 -322 -204 -415 -110 -269 -121 -322 -45 -224 33 42 195 204 305
305 48 43 278 219 288 219 3 0 31 17 63 39 33 21 86 53 119 71 33 18 76 43 96
55 19 13 44 24 55 26 15 3 20 15 25 54 7 62 27 170 40 211 5 17 9 37 9 46 0
17 23 99 45 158 7 19 20 60 30 90 9 30 20 64 25 75 59 147 76 187 97 230 14
28 39 77 56 110 16 33 52 95 78 138 41 65 45 77 29 77 -10 0 -21 -4 -25 -9z"/>
<path d="M6940 7760 c0 -5 4 -10 9 -10 5 0 11 -8 15 -17 3 -10 10 -25 15 -33
28 -41 90 -150 108 -190 58 -124 91 -199 107 -240 10 -25 22 -53 27 -62 5 -10
9 -23 9 -29 0 -6 6 -25 14 -42 7 -18 21 -61 31 -97 10 -36 24 -87 32 -115 26
-92 32 -120 38 -163 2 -24 7 -47 10 -53 4 -5 9 -36 13 -69 4 -33 10 -60 15
-60 9 1 208 -103 244 -128 16 -11 55 -37 88 -58 33 -21 62 -41 65 -44 3 -3 28
-21 55 -40 54 -37 53 -36 165 -131 83 -71 213 -198 308 -303 55 -61 62 -65 62
-43 0 14 -4 29 -10 32 -5 3 -10 13 -10 22 0 14 -7 32 -45 118 -7 17 -23 55
-35 85 -63 155 -189 406 -250 497 -17 24 -30 46 -30 49 0 24 -262 387 -379
524 -72 85 -368 381 -451 451 -162 137 -220 176 -220 149z"/>
<path d="M4290 7419 c-69 -4 -168 -15 -220 -24 -52 -9 -117 -20 -145 -24 -27
-4 -66 -12 -85 -18 -19 -6 -60 -17 -90 -23 -63 -14 -167 -47 -192 -61 -10 -5
-24 -9 -33 -9 -8 0 -31 -7 -52 -16 -21 -9 -47 -20 -58 -25 -165 -65 -356 -165
-500 -259 -12 -8 -41 -26 -64 -39 -48 -29 -52 -41 -13 -42 15 -1 81 -3 147 -5
66 -2 142 -8 168 -14 26 -5 70 -10 97 -10 27 0 69 -4 92 -9 24 -5 77 -17 118
-26 161 -34 216 -48 248 -62 18 -8 41 -13 51 -11 10 2 53 46 96 98 113 140
312 341 415 420 25 19 54 43 65 53 11 11 46 37 78 59 32 22 57 41 55 43 -9 9
-63 10 -178 4z"/>
<path d="M4530 7412 c0 -5 10 -13 23 -19 12 -6 41 -26 64 -44 22 -19 56 -45
74 -59 167 -127 463 -434 516 -535 12 -23 14 -23 60 -8 199 61 322 85 588 113
105 11 220 20 258 19 37 -1 70 1 73 3 5 5 -90 78 -102 78 -3 0 -20 11 -38 25
-18 14 -36 25 -40 25 -5 0 -27 13 -50 28 -80 54 -447 222 -485 222 -9 0 -21 4
-26 9 -6 6 -28 14 -50 20 -22 5 -65 17 -95 25 -124 37 -242 62 -355 76 -44 6
-102 15 -128 20 -58 12 -287 13 -287 2z"/>
<path d="M795 6994 c-22 -33 -43 -61 -46 -64 -4 -3 -17 -23 -29 -45 -12 -22
-30 -53 -41 -70 -10 -16 -22 -37 -26 -45 -3 -8 -10 -17 -14 -20 -14 -11 -179
-331 -179 -350 0 -5 -4 -10 -10 -10 -5 0 -10 -5 -10 -11 0 -6 -7 -27 -16 -47
-68 -154 -77 -175 -97 -227 -10 -27 -21 -61 -24 -75 -3 -14 -12 -34 -19 -45
-8 -11 -14 -28 -14 -37 0 -10 -4 -26 -9 -36 -6 -9 -17 -44 -26 -77 -16 -57
-28 -97 -53 -176 -13 -38 -19 -67 -52 -229 -57 -288 -64 -335 -86 -612 -14
-170 -15 -221 -6 -230 9 -9 12 -5 12 20 0 43 0 42 16 81 8 18 14 42 14 52 0
10 6 33 14 51 7 18 21 58 31 88 19 61 25 77 49 133 9 21 16 42 16 47 0 26 134
296 191 385 10 17 22 37 26 45 11 26 135 203 164 238 32 36 32 32 29 158 -1
50 3 109 8 130 6 21 13 77 16 124 7 87 18 161 42 263 8 32 14 70 14 85 0 14 4
39 10 56 5 17 17 58 26 91 35 130 48 173 76 260 16 50 34 100 40 112 24 49 -1
41 -37 -13z"/>
<path d="M8160 7030 c0 -6 4 -18 9 -28 30 -62 65 -152 86 -222 9 -30 20 -64
25 -75 4 -11 16 -54 25 -95 9 -41 22 -93 28 -115 32 -119 59 -356 63 -545 2
-96 4 -179 4 -185 0 -5 18 -30 40 -54 22 -25 40 -48 40 -52 0 -4 6 -14 13 -21
32 -33 163 -253 221 -373 50 -103 96 -207 96 -218 0 -7 7 -21 15 -31 8 -11 15
-29 15 -41 0 -12 4 -25 9 -31 5 -5 16 -36 26 -69 9 -33 23 -80 31 -104 8 -25
14 -54 14 -66 0 -12 7 -30 15 -41 8 -10 15 -32 15 -47 0 -17 4 -26 10 -22 6 4
9 27 6 53 -2 26 -9 112 -15 192 -7 80 -16 179 -22 220 -23 170 -41 278 -54
330 -7 30 -18 80 -25 110 -6 30 -17 78 -25 105 -7 28 -21 79 -31 115 -9 36
-32 110 -51 165 -19 55 -37 111 -40 125 -3 14 -9 30 -13 35 -5 6 -18 39 -30
75 -41 118 -195 446 -262 555 -10 17 -21 37 -25 45 -7 16 -140 233 -176 287
-22 33 -37 42 -37 23z"/>
<path d="M2730 6832 c-50 -32 -217 -178 -300 -261 -133 -134 -240 -264 -367
-447 -71 -103 -233 -393 -233 -419 0 -3 -13 -35 -30 -70 -16 -35 -30 -69 -30
-75 0 -6 -6 -23 -14 -38 -19 -39 -28 -82 -16 -82 11 0 103 62 108 73 2 4 8 7
14 7 6 0 27 14 48 30 21 17 41 30 44 30 3 0 30 16 60 35 113 72 278 152 461
222 22 8 49 19 60 24 11 4 30 10 41 14 20 5 22 14 28 158 8 156 32 338 61 462
9 39 21 88 25 110 4 22 13 54 19 70 17 45 52 168 49 170 -2 2 -14 -4 -28 -13z"/>
<path d="M4275 6832 c-104 -11 -169 -22 -360 -62 -51 -11 -115 -33 -115 -40 0
-3 26 -15 58 -25 194 -65 592 -269 609 -311 3 -8 9 -12 13 -9 13 8 60 -13 60
-27 0 -8 15 -22 33 -31 19 -10 45 -28 58 -40 13 -13 51 -43 84 -69 33 -25 107
-91 164 -145 l103 -100 92 18 c94 17 260 31 401 33 63 1 79 5 77 16 -4 15 -26
35 -57 50 -11 6 -33 18 -50 28 -73 45 -129 73 -202 102 -138 56 -147 59 -203
75 -30 9 -68 20 -85 25 -76 22 -233 44 -390 55 -34 2 -47 31 -18 42 10 3 31
16 48 27 31 22 61 38 153 86 29 16 58 32 65 37 6 5 37 20 67 33 30 12 80 34
110 47 81 36 90 39 153 59 31 10 57 22 57 26 0 4 -3 8 -6 8 -3 0 -49 12 -102
26 -94 25 -124 31 -262 52 -176 28 -387 33 -555 14z"/>
<path d="M6230 6836 c0 -8 5 -18 10 -21 6 -3 10 -13 10 -22 0 -8 6 -29 14 -46
27 -60 76 -269 96 -407 5 -36 13 -85 19 -110 5 -25 11 -114 13 -198 l3 -153
28 -6 c15 -3 30 -10 33 -14 3 -5 14 -9 24 -9 19 0 29 -4 145 -55 33 -15 76
-34 95 -42 61 -26 105 -48 110 -54 3 -4 25 -16 50 -28 61 -29 129 -69 167 -97
17 -13 34 -24 38 -24 3 0 40 -25 80 -55 41 -30 79 -55 85 -55 15 0 12 44 -4
77 -21 40 -46 100 -46 108 0 8 -69 158 -95 205 -15 29 -57 106 -90 166 -13 23
-49 79 -80 125 -177 257 -335 435 -540 606 -49 42 -102 86 -117 99 -32 27 -48
31 -48 10z"/>
<path d="M3672 6695 c-59 -22 -282 -129 -368 -178 -22 -12 -64 -39 -92 -60
-29 -20 -55 -37 -58 -37 -6 0 -113 -81 -164 -125 -120 -103 -360 -360 -360
-386 0 -12 54 -11 66 1 5 5 32 15 59 20 253 55 406 79 523 83 57 3 107 8 111
13 4 5 14 25 21 44 16 43 44 108 76 176 13 28 24 53 24 56 0 20 143 264 203
346 22 30 35 57 31 62 -5 4 -37 -3 -72 -15z"/>
<path d="M5250 6701 c0 -6 4 -12 9 -15 12 -8 127 -195 169 -276 59 -113 94
-184 107 -215 7 -16 18 -41 23 -55 6 -14 20 -46 31 -72 l21 -46 97 -7 c112 -7
130 -9 233 -24 141 -22 224 -41 339 -77 54 -17 81 -18 81 -3 0 25 -154 197
-285 318 -75 69 -295 241 -310 241 -3 0 -22 12 -41 26 -39 30 -301 164 -320
164 -7 0 -27 8 -46 17 -61 31 -68 33 -88 33 -11 0 -20 -4 -20 -9z"/>
<path d="M7377 6544 c-3 -3 -1 -18 5 -33 20 -48 22 -435 4 -599 -9 -81 -21
-167 -26 -192 -5 -25 -12 -63 -16 -85 -14 -85 -41 -175 -57 -193 -17 -19 -14
-22 70 -93 162 -136 340 -323 467 -491 64 -85 186 -275 199 -311 4 -10 11 -15
17 -12 10 6 4 250 -7 268 -2 4 -9 56 -14 115 -5 59 -15 141 -23 182 -8 41 -19
101 -25 133 -5 32 -15 73 -20 90 -14 47 -33 117 -42 157 -6 32 -19 70 -40 125
-4 11 -15 45 -25 75 -19 61 -40 116 -54 142 -6 10 -10 23 -10 29 0 15 -169
357 -210 424 -16 28 -33 57 -37 65 -19 36 -121 186 -135 197 -8 7 -18 10 -21
7z"/>
<path d="M1579 6516 c-12 -14 -27 -34 -33 -45 -6 -11 -43 -70 -82 -133 -39
-62 -81 -133 -93 -158 -13 -25 -38 -74 -57 -110 -19 -35 -34 -68 -34 -72 0 -4
-18 -46 -40 -93 -22 -47 -40 -90 -40 -95 0 -5 -7 -26 -16 -47 -9 -21 -21 -47
-25 -58 -11 -25 -43 -126 -59 -185 -7 -25 -19 -65 -26 -90 -56 -180 -108 -508
-120 -757 -5 -92 -4 -133 4 -133 5 0 27 30 48 68 20 37 41 69 46 70 4 2 8 7 8
12 0 9 82 132 120 180 15 19 51 64 80 100 106 134 393 410 426 410 7 0 16 9
19 20 3 11 11 20 17 20 6 0 8 3 4 8 -4 4 -13 7 -19 7 -6 0 -19 38 -29 85 -10
47 -23 107 -30 135 -6 27 -14 77 -19 110 -4 33 -13 94 -19 135 -8 50 -11 171
-8 358 2 155 2 282 1 282 -2 0 -13 -11 -24 -24z"/>
<path d="M4260 6360 c-57 -6 -126 -19 -260 -50 -123 -28 -365 -136 -495 -221
-16 -10 -38 -22 -47 -25 -10 -4 -18 -10 -18 -15 0 -5 0 -11 0 -14 0 -3 42 -8
92 -10 168 -8 342 -23 414 -35 l71 -12 59 59 c78 76 196 180 248 218 23 17 53
40 66 52 13 13 32 25 42 29 10 3 18 12 18 20 0 15 -68 17 -190 4z"/>
<path d="M4380 6039 c-74 -4 -148 -12 -163 -18 -16 -6 -39 -11 -52 -11 -28 0
-105 -29 -105 -39 0 -4 28 -13 63 -19 135 -26 153 -30 177 -40 14 -5 52 -18
85 -28 33 -10 64 -22 70 -26 5 -4 23 -8 40 -8 17 0 35 4 41 8 9 8 58 23 174
56 30 8 79 22 109 30 29 9 66 16 82 16 65 0 10 37 -76 51 -188 32 -269 37
-445 28z"/>
<path d="M5613 6000 c2 -8 18 -60 35 -115 58 -188 83 -292 89 -385 3 -36 10
-71 15 -77 6 -7 36 -26 67 -42 31 -15 72 -38 91 -50 19 -11 44 -25 55 -30 11
-5 44 -25 74 -45 29 -20 55 -36 57 -36 2 0 35 -22 72 -48 99 -72 96 -71 88
-27 -4 21 -11 45 -16 54 -5 9 -17 34 -26 56 -24 58 -52 113 -85 170 -15 28
-32 57 -36 65 -12 25 -144 202 -182 244 -98 109 -248 246 -268 246 -7 0 -17 8
-23 18 -8 11 -10 12 -7 2z"/>
<path d="M3305 5949 c-53 -40 -212 -202 -255 -259 -18 -25 -38 -49 -44 -55
-15 -14 -66 -83 -66 -89 0 -3 -13 -25 -30 -49 -39 -58 -132 -239 -155 -302
-10 -27 -22 -54 -27 -60 -13 -15 -9 -38 6 -32 8 3 57 37 109 76 53 39 98 71
101 71 3 0 34 17 68 38 94 58 176 102 187 102 20 0 11 -29 -27 -92 -72 -118
-136 -270 -167 -398 -9 -36 -21 -79 -26 -97 -15 -49 -26 -242 -14 -246 5 -2
39 44 74 102 35 58 88 139 118 178 l53 73 0 112 c1 62 7 163 14 223 12 92 11
114 0 132 -11 18 -11 23 0 32 7 6 19 39 25 74 7 34 17 82 23 107 6 25 14 65
19 90 4 25 15 69 23 98 62 207 61 202 45 201 -8 0 -32 -14 -54 -30z"/>
<path d="M3935 5940 c-3 -5 -13 -10 -21 -10 -39 0 -228 -106 -344 -193 -101
-75 -290 -264 -290 -289 0 -11 26 -10 48 2 9 5 35 16 57 25 22 9 54 22 70 29
51 23 107 43 170 63 33 10 67 23 76 28 9 6 54 62 101 125 47 63 98 129 114
145 15 17 39 42 53 58 l25 27 -27 0 c-14 0 -29 -4 -32 -10z"/>
<path d="M5010 5943 c0 -3 24 -32 53 -62 62 -68 187 -226 187 -238 0 -27 65
-63 184 -102 121 -39 198 -69 238 -91 10 -6 25 -10 33 -10 13 0 14 4 4 21 -18
35 -189 205 -246 246 -29 21 -53 41 -53 46 0 4 -4 7 -9 7 -4 0 -39 20 -77 45
-38 25 -107 64 -154 86 -47 22 -93 44 -102 49 -20 11 -58 13 -58 3z"/>
<path d="M6396 5839 c-3 -8 -7 -77 -9 -154 -4 -133 -18 -267 -37 -345 -16 -65
-31 -135 -39 -175 -9 -48 -19 -67 -32 -60 -5 4 -9 1 -9 -4 0 -6 5 -11 10 -11
6 0 10 -7 10 -15 0 -8 9 -15 20 -15 10 0 23 -6 27 -12 4 -7 39 -40 77 -73 125
-108 263 -252 353 -370 21 -27 48 -58 61 -68 27 -23 28 -51 2 -70 -11 -7 -36
-36 -57 -63 -83 -109 -321 -354 -413 -424 -32 -25 -62 -53 -65 -62 -4 -10 -12
-18 -19 -18 -7 0 -48 -26 -92 -58 -97 -71 -236 -156 -329 -202 -38 -19 -76
-41 -83 -47 -7 -7 -17 -13 -21 -13 -4 0 -8 -24 -9 -52 -1 -29 -9 -82 -17 -118
-30 -131 -54 -226 -70 -280 -38 -127 -32 -134 48 -67 139 115 287 286 386 445
55 88 155 290 166 334 8 31 29 53 44 44 5 -3 11 -23 14 -43 3 -21 12 -74 21
-118 33 -156 54 -322 58 -442 2 -67 7 -125 10 -128 20 -21 192 277 268 465 12
30 29 69 36 87 8 17 14 37 14 45 0 7 10 40 21 73 12 33 25 78 29 100 4 22 17
83 28 135 11 52 26 161 33 242 7 81 16 153 21 160 11 17 29 -6 122 -157 69
-113 206 -381 206 -403 0 -6 8 -25 17 -44 29 -58 31 -65 38 -102 4 -20 11 -39
16 -42 5 -3 9 -18 9 -34 0 -16 5 -32 10 -35 20 -13 36 14 54 92 9 43 24 98 32
123 8 25 14 59 14 77 0 17 4 42 9 56 5 13 17 86 26 163 29 248 14 669 -34 904
-5 25 -14 72 -21 105 -6 33 -16 68 -21 77 -5 9 -12 35 -15 58 -9 53 -41 74
-49 33 -4 -16 -13 -44 -20 -63 -7 -19 -26 -69 -41 -110 -15 -41 -33 -86 -40
-100 -6 -14 -19 -41 -27 -60 -27 -64 -78 -164 -108 -215 -16 -27 -34 -59 -39
-70 -12 -25 -33 -58 -41 -65 -3 -3 -23 -33 -44 -67 -21 -35 -41 -63 -46 -63
-12 0 -17 28 -24 135 -10 151 -34 305 -65 420 -12 44 -26 94 -30 110 -14 53
-61 180 -71 189 -5 6 -9 17 -9 26 0 20 -131 280 -162 323 -13 18 -30 44 -37
59 -21 41 -59 74 -65 57z"/>
<path d="M2555 5813 c-14 -15 -25 -33 -25 -39 0 -6 -6 -17 -14 -23 -7 -6 -28
-39 -45 -74 -18 -34 -47 -89 -64 -122 -18 -33 -47 -96 -66 -140 -18 -44 -36
-87 -40 -95 -4 -8 -16 -42 -25 -75 -10 -33 -24 -75 -32 -93 -8 -18 -14 -42
-14 -53 0 -12 -6 -44 -14 -72 -25 -96 -35 -152 -42 -232 -3 -44 -10 -102 -15
-129 -5 -27 -9 -71 -9 -97 0 -27 -4 -49 -8 -49 -14 0 -49 53 -172 260 -26 44
-150 297 -150 307 0 6 -6 24 -14 40 -20 41 -32 71 -51 133 -10 30 -21 65 -26
78 -10 26 -39 30 -39 5 0 -9 -6 -39 -14 -67 -29 -103 -45 -173 -61 -271 -9
-55 -21 -129 -28 -165 -14 -82 -13 -582 2 -665 6 -33 13 -87 16 -120 4 -33 10
-76 15 -95 5 -19 16 -69 25 -110 9 -41 23 -100 32 -130 9 -30 18 -61 20 -69 5
-21 31 5 42 43 16 52 71 198 90 241 10 22 31 67 45 100 29 65 36 78 86 170 19
33 38 69 44 80 6 11 35 55 64 98 28 42 52 81 52 86 0 5 7 11 15 15 8 3 15 12
15 20 0 8 3 16 8 18 4 2 23 23 42 48 19 25 37 47 40 50 3 3 34 39 70 80 70 82
189 203 260 264 25 22 59 53 77 69 17 16 36 27 41 23 10 -6 9 -11 -26 -181
-28 -133 -46 -349 -38 -449 13 -168 25 -263 41 -326 20 -79 34 -142 35 -152 1
-21 -30 -1 -114 71 -142 124 -308 300 -391 418 -17 24 -34 43 -39 43 -20 0 32
-421 68 -550 8 -30 20 -73 26 -95 22 -77 52 -160 76 -208 8 -16 14 -34 14 -41
0 -19 121 -252 167 -321 22 -33 45 -70 52 -82 20 -39 41 -29 41 20 2 198 31
406 97 677 3 14 7 32 9 40 1 8 20 65 42 125 54 151 52 146 67 180 7 17 18 44
25 60 7 17 16 37 21 45 5 8 12 22 15 30 36 87 55 113 67 93 3 -5 10 -53 17
-108 13 -116 37 -240 50 -266 6 -10 10 -27 10 -38 0 -11 6 -35 14 -53 8 -18
22 -51 31 -73 48 -111 149 -295 163 -295 2 0 1 51 -2 113 -4 61 -9 167 -12
235 -4 120 -4 124 -36 169 -76 106 -188 278 -188 289 0 6 -10 15 -23 21 -17 8
-23 20 -25 49 -2 22 -7 41 -13 42 -5 2 -20 27 -33 55 -66 140 -96 209 -96 217
0 5 -6 24 -14 42 -34 77 -85 226 -91 263 -4 22 -11 54 -16 71 -6 18 -14 54
-18 80 -5 27 -18 101 -29 164 -11 63 -23 181 -27 263 -4 81 -11 147 -16 147
-4 0 -20 -12 -34 -27z"/>
<path d="M575 5688 c-10 -33 -72 -284 -85 -348 -18 -84 -41 -235 -56 -355 -8
-66 -16 -126 -19 -134 -10 -26 -6 -577 5 -626 5 -28 14 -86 20 -130 17 -138
29 -218 39 -265 12 -61 40 -203 52 -270 6 -30 17 -78 25 -106 8 -28 14 -64 15
-80 1 -40 13 -71 23 -56 4 6 11 51 17 99 31 275 78 469 184 758 30 83 29 81
96 218 l53 108 -36 72 c-20 40 -46 93 -57 120 -12 26 -29 66 -40 90 -30 69
-66 169 -81 222 -58 211 -72 263 -81 315 -14 84 -39 255 -45 318 -6 57 -19 80
-29 50z"/>
<path d="M8396 5682 c-3 -5 -10 -66 -16 -137 -6 -70 -15 -136 -21 -146 -5 -10
-9 -28 -9 -41 0 -48 -50 -249 -101 -398 -25 -76 -67 -191 -78 -215 -73 -159
-94 -202 -102 -215 -19 -30 -22 -42 -12 -49 5 -3 24 -37 43 -76 18 -38 37 -78
41 -87 26 -52 99 -243 99 -257 0 -9 4 -21 9 -27 11 -11 30 -79 85 -301 17 -66
31 -156 47 -292 11 -96 25 -149 36 -138 3 4 9 23 14 44 5 21 16 67 24 103 9
36 20 81 24 100 5 19 13 53 19 75 10 37 28 138 52 290 27 176 35 311 35 585 0
332 -13 493 -55 710 -6 30 -15 75 -20 100 -15 84 -38 185 -58 255 -11 39 -22
82 -26 98 -6 26 -20 35 -30 19z"/>
<path d="M5767 5363 c-3 -5 -1 -60 3 -123 5 -63 9 -163 9 -221 1 -106 1 -106
36 -152 65 -85 185 -270 191 -294 4 -13 13 -23 22 -23 25 0 6 196 -34 340 -38
138 -46 158 -113 300 -20 42 -101 180 -106 180 -2 0 -6 -3 -8 -7z"/>
<path d="M6281 5036 c-7 -8 -23 -47 -36 -88 -25 -75 -42 -121 -64 -173 -8 -16
-17 -39 -21 -50 -19 -49 -76 -162 -92 -184 -19 -25 -16 -63 7 -91 7 -8 24 -40
37 -70 67 -144 81 -177 89 -200 41 -123 69 -195 82 -208 14 -14 16 -12 22 14
3 16 10 47 15 69 41 175 48 261 45 500 -3 158 -8 220 -25 295 -12 52 -26 118
-31 145 -13 59 -13 59 -28 41z"/>
<path d="M8009 4428 c-34 -66 -42 -80 -74 -128 -36 -56 -136 -193 -145 -200
-3 -3 -28 -34 -55 -69 -55 -73 -273 -294 -354 -361 -100 -82 -104 -87 -87
-112 17 -26 38 -120 66 -293 6 -38 16 -95 21 -125 16 -84 22 -441 11 -570 -6
-63 -9 -116 -7 -118 5 -6 126 162 142 198 4 8 31 55 60 103 29 48 53 94 53
102 0 7 4 16 9 20 8 4 41 70 86 170 7 17 23 53 35 80 13 28 26 61 31 75 4 14
17 50 29 80 12 30 30 84 41 120 11 36 25 75 30 88 5 13 9 32 9 42 0 11 6 34
14 52 42 98 103 494 122 786 8 114 0 128 -37 60z"/>
<path d="M957 4453 c-10 -9 -8 -145 3 -233 6 -41 14 -121 19 -177 5 -56 12
-106 15 -111 3 -5 10 -38 16 -73 12 -82 27 -154 39 -199 5 -19 17 -64 27 -100
34 -128 109 -345 134 -392 6 -10 10 -23 10 -30 0 -41 268 -535 353 -650 33
-44 45 -36 36 25 -11 78 -10 470 1 567 23 188 33 246 71 418 7 30 19 56 27 59
16 7 32 -13 32 -39 0 -9 14 -46 30 -81 17 -36 30 -69 30 -74 0 -9 128 -267
150 -303 5 -8 35 -58 67 -110 31 -52 61 -99 65 -105 4 -5 28 -38 53 -72 24
-34 53 -72 63 -85 158 -189 298 -332 424 -434 40 -32 84 -69 98 -81 40 -37 49
-29 30 25 -9 26 -19 54 -22 62 -19 54 -60 221 -77 310 -35 190 -41 241 -47
382 -4 99 -10 161 -18 167 -6 5 -33 16 -61 25 -27 9 -61 21 -75 28 -42 18 -82
36 -140 60 -50 21 -87 39 -235 117 -71 37 -165 97 -250 159 -40 28 -77 52 -82
52 -4 0 -19 14 -33 30 -14 17 -30 30 -37 30 -22 0 -388 373 -461 470 -39 52
-75 100 -79 105 -20 24 -124 186 -143 224 -24 44 -24 44 -33 34z"/>
<path d="M6013 4433 c-4 -10 -16 -31 -27 -48 -29 -41 -45 -67 -53 -85 -3 -8
-38 -58 -77 -110 l-70 -95 -7 -180 c-4 -99 -10 -198 -14 -221 -3 -22 -3 -48 1
-58 5 -14 10 -12 27 16 142 225 229 477 244 706 4 67 3 92 -6 92 -6 0 -15 -8
-18 -17z"/>
<path d="M8950 4391 c0 -17 1 -32 2 -33 2 -2 -5 -14 -15 -28 -9 -13 -17 -35
-17 -47 0 -12 -6 -40 -14 -60 -7 -21 -21 -63 -30 -93 -10 -30 -21 -64 -26 -75
-4 -11 -16 -40 -25 -65 -10 -25 -23 -58 -30 -75 -7 -16 -18 -46 -25 -65 -19
-49 -120 -242 -136 -261 -8 -8 -14 -19 -14 -22 0 -10 -63 -112 -72 -115 -4 -2
-8 -8 -8 -13 0 -6 -18 -34 -40 -64 -22 -30 -40 -59 -40 -64 0 -6 -6 -14 -12
-18 -7 -4 -22 -19 -33 -31 -18 -22 -20 -36 -17 -154 4 -132 -7 -275 -33 -428
-8 -47 -17 -101 -19 -121 -3 -20 -10 -48 -16 -63 -5 -15 -10 -40 -10 -55 0
-15 -4 -31 -9 -37 -5 -5 -14 -29 -19 -54 -22 -95 -33 -135 -40 -145 -5 -5 -16
-35 -26 -65 -20 -60 -42 -115 -56 -142 -13 -23 -13 -38 0 -38 6 0 10 5 10 11
0 6 13 28 29 48 39 49 152 234 208 340 100 188 171 339 242 516 5 11 14 34 21
50 15 39 74 217 90 275 7 25 17 56 22 70 6 14 15 41 19 60 5 19 16 64 24 100
19 78 44 197 55 265 44 267 50 318 60 472 5 76 12 161 15 189 5 34 3 54 -4 58
-7 5 -11 -4 -11 -23z"/>
<path d="M30 4348 c0 -35 4 -90 9 -123 5 -33 12 -107 16 -165 3 -58 10 -125
15 -150 5 -25 14 -81 21 -125 15 -107 25 -161 38 -215 7 -25 19 -76 27 -115 9
-38 20 -83 24 -100 5 -16 16 -59 25 -95 10 -36 21 -74 26 -85 5 -11 22 -63 39
-115 17 -52 37 -108 44 -125 8 -16 21 -52 30 -78 9 -27 32 -83 52 -125 20 -42
43 -95 52 -117 8 -22 21 -47 29 -56 7 -8 13 -20 13 -26 0 -26 195 -370 281
-495 11 -15 19 -29 19 -32 0 -3 11 -17 25 -32 25 -27 34 -19 15 14 -5 9 -15
33 -23 52 -8 19 -20 49 -27 65 -12 29 -50 145 -84 252 -9 28 -16 64 -16 78 0
14 -4 34 -10 44 -28 53 -61 326 -67 551 -5 220 -4 217 -65 282 -26 26 -134
196 -188 293 -64 115 -160 318 -160 338 0 7 -4 17 -9 23 -10 9 -57 146 -85
249 -10 33 -24 80 -32 105 -8 25 -14 55 -14 68 0 12 -4 22 -10 22 -6 0 -10
-27 -10 -62z"/>
<path d="M2734 3858 c14 -32 39 -94 55 -133 32 -78 162 -299 191 -325 3 -3 17
-23 32 -45 47 -72 324 -345 349 -345 15 0 10 42 -12 100 -12 30 -30 91 -40
135 -11 44 -26 105 -34 136 -8 30 -15 66 -15 79 0 14 -5 48 -12 77 -12 49 -15
53 -68 80 -30 15 -83 44 -118 65 -34 21 -65 38 -68 38 -2 0 -17 8 -32 19 -15
10 -63 42 -106 71 -44 29 -86 58 -93 66 -8 8 -21 14 -29 14 -12 0 -12 -5 0
-32z"/>
<path d="M3270 3561 c0 -14 118 -141 216 -232 43 -39 150 -119 159 -119 4 0
21 -11 38 -24 58 -42 255 -136 287 -136 27 0 26 2 -16 47 -44 46 -176 211
-221 276 -18 26 -39 47 -46 47 -25 0 -264 83 -342 119 -56 26 -75 32 -75 22z"/>
<path d="M5655 3545 c-68 -32 -141 -63 -160 -68 -11 -3 -51 -17 -90 -31 -38
-14 -77 -25 -86 -26 -16 0 -66 -56 -101 -111 -9 -14 -23 -32 -30 -40 -7 -8
-29 -34 -48 -59 -47 -61 -70 -87 -102 -121 -16 -15 -28 -30 -28 -33 0 -9 38
-7 58 3 9 5 51 25 92 45 184 88 324 190 463 336 104 109 115 143 32 105z"/>
<path d="M7225 3549 c-5 -5 -39 -30 -73 -55 -115 -82 -218 -141 -402 -230 -74
-36 -143 -70 -152 -75 -10 -5 -26 -9 -36 -9 -10 0 -22 -4 -28 -9 -7 -7 -86
-35 -131 -47 -10 -3 -13 -39 -13 -137 0 -74 -4 -156 -9 -183 -5 -27 -12 -76
-16 -109 -3 -33 -10 -78 -15 -100 -9 -39 -22 -98 -40 -180 -11 -51 -32 -124
-58 -200 -11 -33 -19 -61 -17 -63 10 -10 154 109 299 248 256 246 512 609 630
895 10 22 22 49 28 59 16 30 60 148 65 179 5 28 -11 36 -32 16z"/>
<path d="M8318 3139 c-64 -76 -191 -206 -274 -280 -87 -80 -239 -199 -252
-199 -6 0 -12 -3 -14 -7 -4 -11 -96 -73 -107 -73 -5 0 -14 -6 -20 -14 -7 -8
-26 -22 -44 -31 -18 -8 -48 -25 -67 -37 -76 -45 -141 -78 -155 -78 -10 0 -15
-10 -15 -27 0 -27 -22 -139 -55 -278 -9 -38 -20 -86 -24 -106 -4 -19 -11 -41
-16 -48 -4 -8 -11 -27 -16 -45 -34 -137 -178 -459 -270 -601 -10 -16 -22 -37
-26 -45 -3 -8 -11 -18 -16 -21 -5 -4 -8 -12 -5 -19 2 -7 25 5 60 32 31 24 83
63 115 88 81 62 469 452 527 530 27 36 54 70 61 75 31 27 235 318 235 336 0 5
4 9 8 9 5 0 14 10 20 23 6 12 25 45 41 72 76 127 231 424 231 441 0 5 11 31
24 59 44 93 109 271 104 286 -2 6 -24 -13 -50 -42z"/>
<path d="M630 3156 c0 -14 5 -28 10 -31 6 -3 10 -13 10 -22 0 -15 19 -65 46
-116 8 -16 14 -32 14 -37 0 -5 14 -39 31 -77 76 -170 109 -238 162 -333 17
-30 37 -66 44 -80 8 -14 23 -38 34 -55 10 -16 22 -38 25 -47 4 -10 9 -18 13
-18 4 0 15 -17 26 -37 33 -63 255 -367 330 -452 162 -183 323 -343 485 -482
84 -72 179 -143 185 -138 2 3 -2 16 -10 29 -8 14 -19 34 -25 45 -6 11 -24 43
-40 70 -32 55 -74 140 -121 242 -53 117 -59 131 -59 145 0 8 -4 18 -8 24 -8 8
-20 41 -51 135 -44 138 -91 343 -98 431 l-5 58 -66 32 c-277 134 -656 426
-841 647 -50 60 -79 91 -86 91 -3 0 -5 -11 -5 -24z"/>
<path d="M4410 3125 c-36 -12 -94 -30 -130 -40 -36 -10 -84 -24 -108 -31 -23
-8 -56 -14 -72 -14 -17 0 -30 -5 -30 -10 0 -22 88 -46 245 -66 60 -7 336 -7
391 1 21 3 62 11 89 17 136 29 168 50 93 62 -74 11 -139 28 -259 68 -64 21
-125 37 -135 37 -10 -1 -48 -11 -84 -24z"/>
<path d="M2630 3090 c0 -15 114 -145 214 -246 160 -160 257 -235 446 -351 110
-67 279 -153 299 -153 10 0 67 -23 103 -41 23 -12 58 -11 58 0 0 5 -3 11 -7
13 -5 2 -21 23 -38 47 -31 45 -35 53 -74 123 -13 24 -26 45 -30 48 -3 3 -18
28 -32 55 -97 189 -99 195 -134 280 -9 22 -20 48 -25 57 -6 10 -10 24 -10 32
0 20 -18 24 -122 31 -203 14 -353 41 -564 101 -59 16 -84 18 -84 4z"/>
<path d="M6295 3088 c-11 -6 -35 -15 -55 -19 -19 -4 -69 -14 -110 -23 -219
-47 -466 -74 -501 -55 -13 7 -20 -1 -34 -39 -17 -45 -42 -104 -87 -202 -11
-25 -26 -56 -32 -70 -39 -87 -199 -350 -218 -358 -10 -5 -10 -30 0 -36 4 -2
21 1 37 9 17 7 55 23 85 35 55 22 258 121 295 143 198 122 322 216 455 349
153 151 230 241 230 266 0 15 -39 15 -65 0z"/>
<path d="M3945 3014 c-102 -22 -243 -35 -429 -38 -44 -1 -71 -6 -73 -13 -8
-22 205 -144 352 -203 11 -4 34 -13 50 -20 50 -20 149 -50 168 -50 9 0 25 -4
35 -9 9 -5 44 -15 77 -21 33 -6 67 -13 75 -15 12 -2 211 -19 245 -20 28 -1 1
30 -80 90 -100 76 -140 110 -267 232 -48 46 -88 82 -90 82 -2 -1 -30 -8 -63
-15z"/>
<path d="M4899 2945 c-93 -91 -194 -178 -294 -251 -36 -26 -65 -52 -65 -57 0
-11 246 0 270 13 8 4 38 11 65 15 55 8 136 27 175 43 14 5 50 17 80 27 30 10
92 35 138 56 46 22 85 39 87 39 13 0 204 122 208 133 4 10 -14 13 -72 13 -154
1 -358 17 -432 34 l-77 17 -83 -82z"/>
<path d="M4460 2606 c0 -14 -53 -49 -165 -112 -135 -75 -373 -184 -401 -184
-8 0 -22 -4 -32 -9 -9 -5 -30 -14 -47 -21 -27 -11 -28 -13 -10 -20 26 -10 225
-57 295 -70 148 -27 422 -42 530 -29 36 4 101 11 145 14 44 3 103 11 130 17
129 26 194 42 245 59 44 14 51 19 35 25 -18 6 -137 53 -190 74 -58 23 -324
156 -350 175 -16 12 -37 25 -45 29 -34 15 -63 35 -70 47 -12 18 -70 22 -70 5z"/>
<path d="M1660 2379 c0 -12 48 -76 97 -129 18 -19 33 -39 33 -43 0 -12 169
-187 301 -313 94 -90 415 -344 433 -344 3 0 42 -25 88 -55 45 -30 86 -55 90
-55 4 0 36 -17 70 -38 91 -56 278 -145 418 -200 139 -55 161 -62 171 -56 5 3
-14 31 -42 62 -82 89 -274 351 -302 412 -4 8 -16 29 -26 46 -17 27 -74 131
-99 181 -21 39 -44 92 -82 183 l-39 95 -43 2 c-166 8 -469 56 -563 89 -23 8
-49 14 -60 14 -17 0 -74 18 -130 40 -11 5 -29 11 -40 13 -42 11 -144 52 -229
93 -35 17 -46 18 -46 3z"/>
<path d="M7304 2380 c-6 -6 -37 -19 -70 -31 -32 -11 -63 -25 -68 -30 -6 -5
-19 -9 -31 -9 -12 0 -25 -4 -30 -8 -37 -33 -439 -136 -580 -149 -34 -3 -179
-18 -267 -28 -31 -3 -58 -26 -58 -49 0 -50 -202 -440 -297 -574 -15 -22 -34
-48 -41 -58 -50 -74 -167 -221 -209 -261 -43 -41 -27 -54 35 -27 21 9 52 22
70 30 18 8 37 14 42 14 5 0 35 12 67 26 32 14 72 32 88 40 104 46 170 79 173
86 2 4 10 8 17 8 12 0 149 77 215 120 8 6 22 13 30 17 13 6 83 55 230 160 220
159 524 459 693 685 15 20 27 39 27 42 0 10 -25 7 -36 -4z"/>
<path d="M3735 2258 c-16 -6 -39 -14 -50 -18 -94 -34 -378 -88 -555 -104 -30
-3 -115 -8 -188 -12 -73 -4 -135 -11 -138 -16 -3 -4 2 -8 10 -8 8 0 21 -6 28
-13 7 -7 56 -39 108 -70 52 -32 102 -62 110 -67 35 -21 296 -150 303 -150 5 0
23 -6 40 -14 62 -26 113 -45 167 -62 30 -9 64 -21 75 -25 11 -4 36 -11 55 -15
19 -3 41 -10 50 -14 8 -5 53 -16 100 -25 47 -9 103 -21 125 -26 22 -4 69 -11
105 -15 36 -3 74 -9 85 -12 34 -9 295 -14 295 -5 0 4 -35 33 -77 63 -43 30
-109 82 -148 115 -97 82 -307 296 -363 370 -26 33 -57 71 -69 85 -13 14 -23
30 -23 37 0 15 -4 15 -45 1z"/>
<path d="M5150 2172 c-152 -195 -442 -466 -619 -579 -33 -21 152 -20 329 2
110 14 142 20 255 45 28 6 68 15 90 19 84 17 279 79 317 101 10 6 25 10 33 10
8 0 23 4 33 10 9 5 40 19 67 31 54 23 163 76 265 131 89 47 260 158 260 169 0
5 -26 10 -57 10 -139 3 -227 9 -280 18 -31 6 -79 11 -106 11 -27 0 -66 4 -86
9 -20 5 -72 17 -116 26 -136 28 -211 48 -295 78 -10 4 -39 -25 -90 -91z"/>
<path d="M930 1810 c0 -5 5 -10 11 -10 5 0 7 5 4 10 -3 6 -8 10 -11 10 -2 0
-4 -4 -4 -10z"/>
<path d="M7946 1724 c-48 -41 -91 -74 -95 -74 -5 0 -19 -10 -33 -23 -27 -25
-146 -107 -156 -107 -3 0 -13 -6 -21 -14 -21 -18 -72 -46 -201 -111 -105 -53
-132 -66 -225 -105 -27 -11 -57 -24 -65 -28 -8 -5 -42 -16 -75 -26 -33 -10
-68 -22 -77 -27 -10 -5 -28 -9 -41 -9 -31 0 -62 -30 -120 -115 -26 -38 -61
-86 -78 -105 -17 -19 -55 -64 -84 -100 -61 -74 -187 -199 -290 -286 -38 -32
-72 -61 -75 -64 -3 -3 -27 -21 -55 -40 -27 -19 -61 -45 -75 -57 -14 -13 -28
-23 -31 -23 -3 0 -42 -24 -85 -52 -67 -45 -75 -53 -55 -56 13 -2 33 1 45 7 19
9 73 32 146 62 14 6 38 17 53 25 16 8 33 14 38 14 12 0 293 138 369 181 160
90 357 217 498 321 53 40 99 74 102 78 3 3 25 21 50 40 124 95 437 394 528
504 24 29 54 64 67 78 14 15 45 53 71 85 26 32 53 65 61 75 8 9 10 18 6 21 -5
3 -48 -28 -97 -69z"/>
<path d="M981 1748 c18 -24 58 -72 88 -108 31 -36 60 -70 66 -77 95 -112 312
-329 440 -439 28 -24 207 -169 230 -187 70 -52 246 -177 250 -177 3 0 31 -18
64 -40 88 -60 197 -120 401 -221 233 -114 264 -128 365 -164 28 -10 54 -22 59
-27 12 -10 56 -11 56 0 0 4 -19 18 -43 31 -47 26 -246 168 -262 185 -5 7 -32
29 -60 50 -102 77 -319 304 -435 456 -19 25 -45 56 -57 70 -13 14 -23 29 -23
35 0 23 -51 65 -81 65 -16 0 -37 4 -47 9 -9 6 -44 19 -77 30 -34 11 -74 25
-90 32 -17 6 -39 15 -50 20 -11 4 -51 22 -88 38 -38 17 -70 31 -72 31 -2 0
-45 24 -97 53 -51 28 -110 61 -131 72 -20 11 -37 23 -37 27 0 5 -4 8 -9 8 -21
0 -227 148 -349 251 -39 33 -45 21 -11 -23z"/>
<path d="M4451 1535 c-28 -19 -54 -35 -59 -35 -5 0 -27 -13 -48 -28 -40 -29
-274 -145 -354 -176 -25 -10 -58 -24 -75 -31 -110 -47 -332 -112 -415 -122
-60 -7 -66 -12 -42 -29 58 -40 396 -111 712 -148 118 -14 551 -15 635 -2 17 3
62 8 100 11 39 4 88 11 110 15 22 5 63 12 90 15 63 8 226 44 325 72 90 26 132
45 118 55 -7 4 -28 8 -47 8 -18 0 -54 7 -80 15 -25 8 -107 33 -181 56 -74 23
-149 47 -167 55 -17 8 -34 14 -37 14 -8 0 -120 51 -191 87 -154 79 -235 125
-296 169 l-47 34 -51 -35z"/>
<path d="M2146 1162 c-4 -7 114 -102 129 -102 2 0 62 -35 132 -79 139 -85 338
-185 523 -263 14 -5 39 -16 55 -23 76 -32 119 -47 240 -85 253 -79 260 -81
525 -135 179 -36 331 -54 548 -62 96 -4 142 -2 142 5 0 6 -13 13 -30 17 -16 4
-32 11 -35 16 -4 5 -13 9 -21 9 -19 0 -290 135 -304 151 -3 3 -12 9 -20 12 -8
4 -28 16 -45 27 -16 11 -37 23 -45 27 -15 6 -101 63 -110 73 -3 3 -41 32 -85
64 -100 74 -190 151 -278 239 l-69 67 -51 -5 c-29 -4 -82 -11 -118 -16 -73
-11 -346 -26 -424 -24 -122 5 -275 17 -335 26 -134 22 -272 51 -301 63 -10 4
-20 3 -23 -2z"/>
<path d="M6785 1155 c-22 -7 -64 -18 -94 -25 -52 -12 -86 -17 -266 -39 -236
-29 -684 -12 -793 30 -23 9 -54 -16 -191 -152 -56 -56 -318 -253 -414 -311
-137 -84 -330 -181 -424 -214 -29 -10 -53 -22 -53 -27 0 -12 242 -6 365 10
238 30 431 61 465 75 14 5 45 14 70 18 118 23 182 39 240 63 14 5 39 13 55 17
32 8 166 55 200 69 11 5 40 16 65 26 130 50 266 114 455 214 151 80 397 239
390 252 -7 11 -18 10 -70 -6z"/>
<path d="M4435 378 c-27 -11 -66 -24 -85 -28 -19 -5 -60 -16 -90 -25 -30 -9
-66 -19 -80 -21 -14 -3 -52 -11 -85 -19 -102 -23 -167 -34 -235 -40 -36 -3
-99 -11 -140 -16 -75 -11 -401 -7 -489 7 -31 4 -42 3 -37 -5 4 -6 20 -11 35
-11 15 0 32 -5 39 -12 6 -6 30 -14 54 -19 39 -6 136 -29 278 -64 30 -8 102
-21 160 -30 58 -9 132 -20 165 -25 33 -5 105 -12 160 -15 56 -3 128 -10 160
-15 61 -8 489 -6 535 3 14 3 73 8 132 12 59 3 122 10 140 16 18 5 56 9 84 9
28 0 73 7 100 15 27 8 60 15 74 15 22 0 75 11 200 41 169 40 206 50 217 61 10
11 -28 13 -195 12 -186 -2 -428 14 -471 31 -9 4 -47 10 -86 15 -97 13 -208 41
-372 96 -55 19 -105 34 -110 33 -4 0 -30 -10 -58 -21z"/>
<path d="M5960 290 c-13 -8 -12 -10 3 -10 9 0 17 5 17 10 0 12 -1 12 -20 0z"/>
<path d="M5755 230 c-8 -13 5 -13 25 0 13 8 13 10 -2 10 -9 0 -20 -4 -23 -10z"/>
</g>
</svg>
