<?xml version="1.0" standalone="no"?>
<!DOCTYPE svg PUBLIC "-//W3C//DTD SVG 20010904//EN"
 "http://www.w3.org/TR/2001/REC-SVG-20010904/DTD/svg10.dtd">
<svg version="1.0" xmlns="http://www.w3.org/2000/svg"
 width="54.000000pt" height="78.000000pt" viewBox="0 0 54.000000 78.000000"
 preserveAspectRatio="xMidYMid meet">
<metadata>
Created by potrace 1.16, written by Peter Selinger 2001-2019
</metadata>
<g transform="translate(0.000000,78.000000) scale(0.100000,-0.100000)"
fill="#000000" stroke="none">
<path d="M240 645 c-16 -43 -8 -62 61 -138 l62 -68 -52 -53 c-55 -55 -64 -88
-31 -106 27 -14 46 -3 109 65 43 48 51 62 51 96 0 37 -7 48 -94 137 l-95 97
-11 -30z"/>
<path d="M167 421 c-58 -60 -67 -74 -67 -106 0 -34 9 -47 87 -127 l88 -89 12
28 c17 39 8 59 -53 127 l-53 59 54 61 c56 62 64 83 43 104 -23 23 -45 12 -111
-57z"/>
</g>
</svg>
