<?xml version="1.0" standalone="no"?>
<!DOCTYPE svg PUBLIC "-//W3C//DTD SVG 20010904//EN"
 "http://www.w3.org/TR/2001/REC-SVG-20010904/DTD/svg10.dtd">
<svg version="1.0" xmlns="http://www.w3.org/2000/svg"
 width="225.000000pt" height="225.000000pt" viewBox="0 0 225.000000 225.000000"
 preserveAspectRatio="xMidYMid meet">

<g transform="translate(0.000000,225.000000) scale(0.100000,-0.100000)"
fill="#000000" stroke="none">
<path d="M0 1125 l0 -1125 1125 0 1125 0 0 1125 0 1125 -1125 0 -1125 0 0
-1125z m1137 800 c23 -14 43 -29 43 -33 0 -4 -75 -50 -168 -103 -545 -312
-545 -312 -523 -331 21 -16 21 -24 21 -427 0 -226 -2 -411 -4 -411 -2 0 -11 3
-20 6 -14 5 -16 52 -16 425 l0 419 -45 28 c-25 15 -45 29 -45 32 0 4 123 77
273 164 149 88 308 181 352 207 44 27 82 49 84 49 2 0 24 -11 48 -25z m150
-90 c23 -14 43 -27 43 -29 0 -2 -69 -43 -152 -91 -84 -49 -245 -142 -357 -207
-112 -65 -206 -118 -208 -118 -2 0 -25 12 -50 26 l-45 27 49 30 c26 17 62 38
78 47 59 33 461 268 520 303 33 20 64 36 69 37 5 0 29 -11 53 -25z m193 -115
c0 -3 -60 -39 -134 -81 l-134 -76 -46 25 c-25 14 -46 28 -46 31 1 3 60 40 133
82 l132 76 47 -26 c26 -14 48 -28 48 -31z m104 -56 c26 -15 44 -30 39 -34 -16
-16 -252 -150 -262 -150 -14 0 -94 50 -89 55 4 4 261 155 264 155 1 0 23 -12
48 -26z m-474 -312 l0 -259 51 -27 c28 -16 49 -29 47 -31 -2 -2 -70 -42 -153
-90 -315 -183 -290 -166 -270 -181 10 -8 22 -14 26 -14 4 0 105 56 224 125
119 69 220 125 223 125 11 0 92 -44 92 -51 0 -3 -98 -62 -217 -131 l-218 -127
-44 25 c-24 13 -47 24 -52 24 -5 0 -10 -68 -11 -150 -3 -141 -4 -150 -20 -138
-15 11 -18 34 -19 166 l-1 153 -40 25 c-72 46 -68 53 -68 -115 0 -83 -3 -151
-7 -151 -30 1 -31 22 -35 433 -2 229 0 417 4 417 4 0 10 -4 13 -10 13 -21 47
-6 250 114 116 69 213 125 218 125 4 1 7 -115 7 -257z m628 222 c52 -30 61
-20 -110 -118 l-118 -67 -45 27 c-32 18 -43 30 -36 37 14 14 244 146 255 147
5 0 29 -12 54 -26z m-495 -36 c16 -12 17 -37 15 -270 -3 -251 -3 -256 -22
-242 -18 13 -20 29 -20 269 -1 140 2 255 5 255 3 0 13 -6 22 -12z m587 -445
l0 -418 -23 -11 c-12 -6 -76 -42 -142 -81 -271 -158 -528 -305 -541 -310 -12
-5 -14 18 -12 148 l3 154 95 56 c52 31 153 90 224 132 128 74 129 76 103 88
l-27 12 0 259 c0 237 4 281 25 248 11 -19 32 -10 161 65 71 41 130 75 131 75
2 0 3 -188 3 -417z m-436 361 c14 -5 16 -38 16 -265 0 -142 -3 -259 -6 -259
-3 0 -14 5 -25 10 -18 10 -19 24 -19 265 0 148 4 255 9 255 5 0 16 -3 25 -6z
m62 -560 c37 -22 43 -29 32 -39 -19 -17 -413 -245 -424 -245 -12 0 -94 44 -94
50 0 4 426 256 438 259 2 1 24 -11 48 -25z m-508 -226 c8 -8 12 -59 12 -165 0
-149 -1 -153 -19 -143 -18 9 -20 23 -23 155 -4 173 -1 184 30 153z"/>
</g>
</svg>
