<?xml version="1.0" standalone="no"?>
<!DOCTYPE svg PUBLIC "-//W3C//DTD SVG 20010904//EN"
 "http://www.w3.org/TR/2001/REC-SVG-20010904/DTD/svg10.dtd">
<svg version="1.0" xmlns="http://www.w3.org/2000/svg"
 width="200.000000pt" height="200.000000pt" viewBox="0 0 200.000000 200.000000"
 preserveAspectRatio="xMidYMid meet">

<g transform="translate(0.000000,200.000000) scale(0.100000,-0.100000)"
fill="#000000" stroke="none">
<path d="M70 1734 c0 -4 22 -42 49 -83 41 -64 238 -374 514 -811 123 -194 182
-288 247 -390 37 -58 77 -122 89 -142 13 -21 26 -38 29 -38 4 1 39 51 78 113
40 62 242 380 449 707 208 327 387 607 397 623 l19 27 -58 -1 -58 0 -86 -137
c-225 -357 -462 -728 -474 -740 -10 -11 -18 -4 -44 36 -17 27 -31 55 -31 62 0
7 22 47 48 89 276 433 432 680 432 685 0 3 -24 6 -52 6 l-53 0 -145 -230 c-80
-127 -178 -283 -219 -346 l-74 -115 -39 59 -38 59 170 268 c94 147 175 276
181 286 9 17 5 19 -44 19 l-53 0 -56 -87 c-30 -49 -97 -153 -147 -233 -51 -80
-96 -149 -100 -153 -7 -7 -181 256 -290 436 -22 36 -25 37 -77 37 -42 0 -53
-3 -48 -12 12 -21 191 -303 276 -436 l79 -123 -38 -60 c-32 -53 -39 -59 -49
-44 -7 9 -106 164 -221 345 l-208 329 -52 1 c-29 0 -53 -2 -53 -5 0 -5 388
-618 455 -720 l33 -50 -19 -35 c-11 -19 -28 -45 -37 -58 -18 -23 -19 -21 -200
265 -100 158 -226 358 -280 443 l-99 155 -51 3 c-29 2 -52 0 -52 -4z m965
-715 l37 -60 -36 -55 c-20 -30 -38 -54 -41 -54 -3 0 -21 25 -41 55 l-35 55 37
60 c20 33 38 60 39 60 1 0 19 -27 40 -61z m-119 -226 l25 -42 -33 -50 c-18
-28 -36 -51 -40 -51 -9 0 -68 98 -68 113 0 6 14 34 31 61 35 56 33 57 85 -31z
m267 -6 l19 -35 -38 -57 c-43 -64 -36 -66 -91 25 l-22 36 37 57 37 57 20 -24
c11 -14 28 -40 38 -59z m-147 -181 l36 -54 -37 -58 -37 -58 -34 55 c-18 30
-34 59 -34 64 0 12 58 105 65 105 3 0 21 -24 41 -54z"/>
</g>
</svg>
